HIERARCHY
ROOT Hips
{
  OFFSET -3.2387 97.4658 79.3505
  CHANNELS 6 Xposition Yposition Zposition Zrotation Xrotation Yrotation
  JOINT RightUpLeg
  {
    OFFSET -8.9458 -8.66707 0.101652
    CHANNELS 3 Zrotation Xrotation Yrotation
    JOINT RightLeg
    {
      OFFSET 0 -44.4227 1.3727
      CHANNELS 3 Zrotation Xrotation Yrotation
      JOINT RightFoot
      {
        OFFSET 0.253549 -42.0924 -1.46059
        CHANNELS 3 Zrotation Xrotation Yrotation
        JOINT RightToes
        {
          OFFSET 0.04 -4.41509 8.4991
          CHANNELS 3 Zrotation Xrotation Yrotation
          End Site
          {
            OFFSET -0.08 -0.137448 9.77979
          }
        }
      }
    }
  }
  JOINT Spine
  {
    OFFSET 0 11.8905 0
    CHANNELS 3 Zrotation Xrotation Yrotation
    JOINT Spine1
    {
      OFFSET 0 25.6574 0.127663
      CHANNELS 3 Zrotation Xrotation Yrotation
      JOINT HEad
      {
        OFFSET 0 8.73416 0.011341
        CHANNELS 3 Zrotation Xrotation Yrotation
        End Site
        {
          OFFSET -0.29 12.7742 2.51395
        }
      }
      JOINT LeftShoulder1
      {
        OFFSET 8.99 -0.362252 -0.22
        CHANNELS 3 Zrotation Xrotation Yrotation
        JOINT LeftArm
        {
          OFFSET 10.2827 -0.00338 0.322123
          CHANNELS 3 Zrotation Xrotation Yrotation
          JOINT LeftForeArm
          {
            OFFSET 32.7669 0.099144 -1.42434
            CHANNELS 3 Zrotation Xrotation Yrotation
            JOINT LeftHand
            {
              OFFSET 27.5643 0.085362 1.02216
              CHANNELS 3 Zrotation Xrotation Yrotation
              End Site
              {
                OFFSET 16.7443 -0.6 1.50291
              }
            }
          }
        }
      }
      JOINT RightShoulder
      {
        OFFSET -8.99 -0.362252 -0.22
        CHANNELS 3 Zrotation Xrotation Yrotation
        JOINT RightArm
        {
          OFFSET -10.2827 -0.00338 0.322123
          CHANNELS 3 Zrotation Xrotation Yrotation
          JOINT RightForeArm
          {
            OFFSET -32.8971 0.099144 -1.42434
            CHANNELS 3 Zrotation Xrotation Yrotation
            JOINT RightHand
            {
              OFFSET -27.4921 0.085362 1.02216
              CHANNELS 3 Zrotation Xrotation Yrotation
              End Site
              {
                OFFSET -16.6312 -0.6 1.50291
              }
            }
          }
        }
      }
    }
  }
  JOINT LeftUpLeg
  {
    OFFSET 8.9458 -8.66707 0.101652
    CHANNELS 3 Zrotation Xrotation Yrotation
    JOINT LeftLeg
    {
      OFFSET 0 -44.4227 1.3727
      CHANNELS 3 Zrotation Xrotation Yrotation
      JOINT LeftFoot
      {
        OFFSET -0.253549 -42.0924 -1.46059
        CHANNELS 3 Zrotation Xrotation Yrotation
        JOINT LeftToes
        {
          OFFSET -0.04 -4.41509 8.4991
          CHANNELS 3 Zrotation Xrotation Yrotation
          End Site
          {
            OFFSET 0.08 -0.047448 9.77979
          }
        }
      }
    }
  }
}
MOTION
Frames:	16
Frame Time:	0.0166667
-3.2387 97.4658 79.3505 -1.65145 -5.26879 153.386 -14.0283 -2.20773 0.367116 3.45597 41.6035 3.54495 8.93643 -11.9159 0.300661 0.0462048 0.000533403 0.662642 -1.6726 4.71492 4.80999 -1.89035 9.05974 9.9651 -7.60994 -4.43712 9.62601 7.95139e-016 0 1.59028e-015 -85.4574 -66.9157 -33.9248 -49.084 62.3391 -78.6356 23.2317 11.4418 -37.4166 14.2131 3.62671 18.6204 91.0099 -36.9689 49.2185 -12.8335 66.235 146.382 -10.0744 23.1467 -46.0498 21.4248 -40.7096 1.9581 8.76882 51.3038 -24.5869 -32.0408 19.3331 6.85403 -1.34273e-009 1.56012e-007 -4.85087e-009 
-4.11973 99.0438 78.8217 -2.2462 -5.25259 152.622 -15.3563 -3.03848 0.507564 3.37279 40.5723 4.26103 10.5103 -9.68911 0.23314 0.0462048 0.000533403 0.662642 -1.9027 4.53688 5.07984 -2.22482 8.68359 10.3944 -7.91631 -3.5853 9.44854 -1.76556e-031 6.36111e-015 1.59028e-015 -85.3046 -67.4164 -34.3878 -50.0035 62.21 -77.4587 23.1365 11.5181 -37.2414 14.1798 3.66473 18.874 90.0665 -37.3151 48.2733 -12.0173 66.0364 145.627 -10.3221 23.179 -45.4681 21.9084 -40.4012 2.73673 7.02013 48.6798 -24.6602 -34.6908 22.2204 8.41553 -1.34274e-009 1.56012e-007 -4.85087e-009 
-4.94603 100.578 78.2921 -2.70753 -5.32283 151.692 -16.4723 -4.06334 0.578153 3.65479 39.6919 4.11808 11.3336 -7.08925 0.0270125 0.0462048 0.000533403 0.662642 -2.1228 4.32669 5.34789 -2.43155 8.24238 10.8463 -8.28719 -2.63919 9.45946 7.95139e-016 -6.36111e-015 1.59028e-015 -84.6603 -68.0953 -34.4905 -50.3829 62.1003 -76.8942 23.325 11.5292 -36.8662 14.1108 3.69448 19.1197 89.262 -37.664 47.5566 -11.3051 66.0615 144.963 -10.6015 23.2239 -44.8906 22.222 -39.8964 3.16306 6.13 46.4682 -25.026 -35.4116 22.5841 8.74767 -1.34273e-009 1.56012e-007 -4.85087e-009 
-5.69777 101.995 77.7787 -3.04049 -5.47729 150.708 -17.3151 -5.17717 0.555305 4.23815 39.0296 3.06013 11.5223 -4.69268 -0.217412 0.0462048 0.000533403 0.662642 -2.28458 4.08602 5.57069 -2.53986 7.74797 11.2452 -8.62346 -1.72071 9.65717 -1.76556e-031 6.36111e-015 1.59028e-015 -83.6399 -69.0165 -34.4507 -50.7011 62.0261 -76.4623 23.6411 11.5089 -36.42 14.0432 3.72418 19.3653 88.6314 -37.9404 47.1209 -10.8814 66.1695 144.583 -10.8136 23.2587 -44.4796 22.414 -39.2721 3.18992 5.74221 44.6483 -24.9185 -34.0636 21.109 7.94427 -1.34273e-009 1.56012e-007 -4.85087e-009 
-6.37532 103.211 77.2824 -3.27453 -5.68787 149.747 -17.9008 -6.30681 0.415564 5.03517 38.68 1.22666 11.2784 -3.08786 -0.400999 0.0462048 0.000533403 0.662642 -2.37769 3.82471 5.73443 -2.60095 7.22681 11.5447 -8.8442 -0.943173 10.0094 -8.82781e-032 -3.18055e-015 -1.59028e-015 -82.4311 -70.249 -34.5816 -51.4569 62.0045 -75.632 23.9123 11.4984 -36.0151 14.0034 3.76085 19.6215 88.202 -38.0794 46.9814 -10.8928 66.2094 144.615 -10.8877 23.2711 -44.3421 22.55 -38.5112 2.83541 5.47348 42.9967 -23.7564 -31.2714 18.6825 6.56815 -1.34273e-009 1.56012e-007 -4.85087e-009 
-6.99603 104.152 76.7963 -3.42748 -5.91488 148.84 -18.2654 -7.38407 0.132923 5.94666 38.6275 -1.06238 10.8556 -2.53883 -0.482757 0.0462048 0.000533403 0.662642 -2.39441 3.55764 5.8414 -2.66019 6.71242 11.7393 -8.91393 -0.375556 10.4717 7.95139e-016 3.18055e-015 -1.59028e-015 -81.27 -71.855 -35.2346 -52.9999 62.0368 -73.9848 23.9798 11.5418 -35.7157 13.9995 3.80673 19.891 87.9884 -38.055 47.1164 -11.3767 66.0909 145.065 -10.8137 23.2593 -44.4858 22.7126 -37.5569 2.17434 5.01034 41.2216 -21.407 -27.9551 16.1743 5.20526 -1.34273e-009 1.56012e-007 -4.85087e-009 
-7.58168 104.77 76.3096 -3.50895 -6.11745 147.971 -18.4414 -8.33489 -0.306741 6.84857 38.7016 -3.40976 10.4957 -2.82196 -0.48627 0.0462048 0.000533403 0.662642 -2.35214 3.29855 5.91171 -2.74186 6.2301 11.8587 -8.84887 -0.0223889 11.0047 0 0 -1.59028e-015 -80.4714 -73.8706 -36.798 -55.3941 62.0893 -71.344 23.7388 11.679 -35.5082 14.0322 3.86062 20.1646 87.9673 -37.895 47.4662 -12.2296 65.8157 145.799 -10.6431 23.232 -44.8229 22.9685 -36.3615 1.31669 4.21815 39.1258 -18.2474 -24.8861 14.2185 4.17451 -1.34273e-009 1.56012e-007 -4.85088e-009 
-8.14645 105.038 75.8111 -3.5222 -6.2685 147.094 -18.4459 -9.10296 -0.884279 7.61894 38.7061 -5.53863 10.3253 -3.44275 -0.457178 0.0462048 0.000533403 0.662642 -2.28089 3.04988 5.9704 -2.84327 5.77861 11.946 -8.69821 0.173051 11.5844 7.95139e-016 0 -3.18055e-015 -80.5489 -76.275 -39.8042 -58.3263 62.0964 -67.8442 23.2028 11.9256 -35.2921 14.1146 3.92357 20.4314 88.0556 -37.6791 47.935 -13.2445 65.4653 146.599 -10.4633 23.2054 -45.2145 23.3429 -34.9092 0.396572 3.19094 36.6946 -14.9845 -22.5324 13.0504 3.5308 -1.34273e-009 1.56012e-007 -4.85087e-009 
-8.69205 104.941 75.2897 -3.46673 -6.36055 146.173 -18.3022 -9.67009 -1.52465 8.2233 38.5996 -7.4678 10.3293 -4.10868 -0.417849 0.0462048 0.000533403 0.662642 -2.20841 2.7984 6.03169 -2.93939 5.32367 12.0282 -8.51262 0.304668 12.2041 -7.95139e-016 3.18055e-015 -0 -82.5059 -78.9379 -45.2321 -61.1033 61.9894 -63.9026 22.5561 12.2445 -34.9126 14.2852 4.00515 20.6992 88.1073 -37.5248 48.4012 -14.1954 65.1502 147.265 -10.3557 23.1966 -45.5356 23.8024 -33.2227 -0.428206 2.1898 34.0974 -12.3419 -21.0814 12.4889 3.18795 -1.34273e-009 1.56012e-007 -4.85087e-009 
-9.20987 104.482 74.7398 -3.33712 -6.40021 145.225 -18.0628 -10.045 -2.0905 8.7767 38.5709 -9.49888 10.4455 -5.07638 -0.344551 0.0462048 0.000533403 0.662642 -2.15281 2.52229 6.08612 -2.99328 4.81286 12.0907 -8.32056 0.466045 12.8735 0 0 -3.18055e-015 -88.3633 -81.5322 -55.0608 -62.7911 61.728 -60.0724 22.1404 12.5412 -34.2123 14.6007 4.12566 21.0116 87.9423 -37.5597 48.7459 -14.9104 64.947 147.683 -10.3522 23.2126 -45.7303 24.268 -31.3786 -0.984139 1.50493 31.65 -10.8093 -20.4723 12.0372 3.00342 -1.34273e-009 1.56012e-007 -4.85088e-009 
-9.68756 103.68 74.1696 -3.11762 -6.39768 144.335 -17.804 -10.235 -2.40636 9.50589 38.9442 -11.9864 10.7007 -7.03877 -0.174491 0.0462048 0.000533403 0.662642 -2.11809 2.20574 6.0973 -2.96766 4.20737 12.0675 -8.12587 0.710384 13.6126 -7.95139e-016 -6.36111e-015 3.18055e-015 -100.892 -83.4412 -72.0253 -62.4746 61.3066 -56.796 22.3504 12.713 -33.0344 15.1137 4.31171 21.4436 87.3943 -37.8809 48.8864 -15.326 64.8487 147.852 -10.4107 23.2425 -45.8356 24.6672 -29.5167 -1.12184 1.31185 29.7292 -10.5253 -20.428 11.0912 2.81382 -1.34274e-009 1.56012e-007 -4.85085e-009 
-10.1149 102.573 73.6124 -2.78459 -6.35742 143.656 -17.5973 -10.2318 -2.30733 10.6494 39.9657 -15.0807 11.2828 -10.54 0.16264 0.0462048 0.000533403 0.662642 -2.10174 1.85294 6.01186 -2.84046 3.51233 11.8547 -7.91963 1.02016 14.4436 7.95139e-016 0 -0 -117.408 -83.9512 -93.4122 -59.6342 60.7539 -54.0992 23.4725 12.7394 -31.1446 15.8492 4.58782 22.0714 86.3601 -38.5117 48.8057 -15.5061 64.755 147.879 -10.4277 23.2597 -45.9623 24.9935 -27.8307 -0.778175 1.60199 28.6534 -11.3034 -20.5674 9.20965 2.47814 -1.34273e-009 1.56012e-007 -4.85087e-009 
-10.4836 101.215 73.1347 -2.32896 -6.27532 143.366 -17.4842 -10.047 -1.69838 12.3726 41.6271 -18.6428 12.3695 -15.3178 0.708402 0.0462048 0.000533403 0.662642 -2.13177 1.49626 5.77764 -2.62464 2.79072 11.344 -7.69103 1.29732 15.3781 7.95139e-016 3.18055e-015 -0 -126.435 -83.0221 -107.69 -54.6067 60.1307 -51.2956 25.4882 12.7712 -28.2026 16.79 4.96596 22.9311 84.8409 -39.3805 48.5667 -15.6291 64.5145 147.952 -10.2846 23.2342 -46.2449 25.3124 -26.5249 -0.006048 2.22797 28.5368 -12.7941 -20.6053 6.34415 1.95014 -1.34273e-009 1.56012e-007 -4.85087e-009 
-10.7938 99.685 72.8121 -1.76564 -6.14637 143.609 -17.4696 -9.78573 -0.609301 14.7244 43.7376 -22.3121 13.7862 -20.2905 1.41258 0.0462048 0.000533403 0.662642 -2.22919 1.1886 5.36521 -2.36952 2.14856 10.467 -7.42781 1.38059 16.402 -1.59028e-015 -1.59028e-015 6.36111e-015 -119.92 -81.1872 -106.794 -47.6724 58.8842 -48.2121 27.8779 13.1516 -23.8688 17.8742 5.43583 23.9862 82.9654 -40.3367 48.3056 -15.9067 63.9985 148.26 -9.90406 23.1448 -46.7827 25.7105 -25.7704 1.06615 3.02173 29.2672 -14.702 -20.4806 2.85783 1.30142 -1.34273e-009 1.56012e-007 -4.85089e-009 
-11.0486 98.1196 72.7031 -1.14169 -5.98382 144.44 -17.5208 -9.65203 0.77508 17.5964 46.0918 -25.6365 14.9537 -24.2552 2.06587 0.0462048 0.000533403 0.662642 -2.395 0.988887 4.78137 -2.1437 1.70505 9.23626 -7.11531 1.0899 17.4617 7.95139e-016 0 -0 -65.2418 -73.702 -59.669 -30.8597 47.1977 -53.3594 29.2949 14.5205 -17.1873 18.9969 5.95803 25.1273 80.9808 -41.1999 48.2014 -16.4688 63.1723 148.899 -9.29277 22.9894 -47.5943 26.2196 -25.638 2.30124 3.89413 30.4797 -16.8841 -20.3275 -0.591946 0.670552 -1.34273e-009 1.56012e-007 -4.85088e-009 
-11.2542 96.6778 72.828 -0.525186 -5.82356 145.787 -17.5872 -9.84509 2.14209 20.679 48.5645 -28.1358 15.3429 -26.5598 2.41192 0.0462048 0.000533403 0.662642 -2.59096 0.942375 4.0792 -1.99658 1.55735 7.76973 -6.74926 0.293573 18.4594 0 0 -3.18055e-015 -45.1034 -62.2927 -47.3594 -21.6342 32.7685 -49.4197 28.6021 15.8725 -12.2536 20.0204 6.46517 26.2007 79.199 -41.8204 48.4182 -17.2824 62.1288 149.804 -8.55486 22.7918 -48.5999 26.7796 -26.1125 3.57625 4.85414 31.7577 -19.2865 -20.3241 -3.357 0.173736 -1.34273e-009 1.56012e-007 -4.85088e-009 
